# Blender v2.78 (sub 0) OBJ File: ''
# www.blender.org
mtllib cylinder8.mtl
o Cylinder
v 0.000000 -1.000000 -0.500000
v 0.000000 0.000000 -0.500000
v 0.353553 -1.000000 -0.353553
v 0.353553 0.000000 -0.353553
v 0.500000 -1.000000 0.000000
v 0.500000 0.000000 0.000000
v 0.353553 -1.000000 0.353553
v 0.353553 0.000000 0.353553
v -0.000000 -1.000000 0.500000
v -0.000000 0.000000 0.500000
v -0.353553 -1.000000 0.353553
v -0.353553 0.000000 0.353553
v -0.500000 -1.000000 -0.000000
v -0.500000 0.000000 -0.000000
v -0.353553 -1.000000 -0.353553
v -0.353553 0.000000 -0.353553
vt 0.000000 0.000000
vt 0.000000 1.000000
vt 0.125000 0.000000
vt 0.125000 1.000000
vt 0.250000 0.000000
vt 0.250000 1.000000
vt 0.375000 0.000000
vt 0.375000 1.000000
vt 1.000000 0.000000
vt 1.000000 1.000000
vt 0.875000 0.000000
vt 0.875000 1.000000
vt 0.750000 0.000000
vt 0.750000 1.000000
vt 0.625000 0.000000
vt 0.625000 1.000000
vn 0.0000 0.0000 -1.0000
vn 0.7071 0.0000 -0.7071
vn 1.0000 0.0000 0.0000
vn 0.7071 0.0000 0.7071
vn 0.0000 0.0000 1.0000
vn -0.7071 0.0000 0.7071
vn -1.0000 0.0000 0.0000
vn -0.7071 0.0000 -0.7071
usemtl None
s 1
f 2/2/1 3/3/2 1/1/1
f 4/4/2 5/6/3 3/3/2
f 6/6/3 7/7/4 5/5/3
f 8/8/4 9/9/5 7/7/4
f 10/10/5 11/11/6 9/9/5
f 12/12/6 13/13/7 11/11/6
f 14/4/7 15/15/8 13/13/7
f 16/16/8 1/1/1 15/15/8
f 2/2/1 4/4/2 3/3/2
f 4/4/2 6/6/3 5/5/3
f 6/6/3 8/8/4 7/7/4
f 8/8/4 10/10/5 9/9/5
f 10/10/5 12/12/6 11/11/6
f 12/12/6 14/14/7 13/13/7
f 14/14/7 16/16/8 15/15/8
f 16/16/8 2/2/1 1/1/1
