# Blender v2.78 (sub 0) OBJ File: ''
# www.blender.org
mtllib cylinder16.mtl
o Cylinder
v 0.000000 -1.000000 -1.000000
v 0.000000 1.000000 -1.000000
v 0.382683 -1.000000 -0.923880
v 0.382683 1.000000 -0.923880
v 0.707107 -1.000000 -0.707107
v 0.707107 1.000000 -0.707107
v 0.923880 -1.000000 -0.382683
v 0.923880 1.000000 -0.382683
v 1.000000 -1.000000 0.000000
v 1.000000 1.000000 0.000000
v 0.923880 -1.000000 0.382684
v 0.923880 1.000000 0.382684
v 0.707107 -1.000000 0.707107
v 0.707107 1.000000 0.707107
v 0.382683 -1.000000 0.923880
v 0.382683 1.000000 0.923880
v 0.000000 -1.000000 1.000000
v 0.000000 1.000000 1.000000
v -0.382683 -1.000000 0.923880
v -0.382683 1.000000 0.923880
v -0.707107 -1.000000 0.707107
v -0.707107 1.000000 0.707107
v -0.923880 -1.000000 0.382684
v -0.923880 1.000000 0.382684
v -1.000000 -1.000000 -0.000000
v -1.000000 1.000000 -0.000000
v -0.923879 -1.000000 -0.382684
v -0.923879 1.000000 -0.382684
v -0.707107 -1.000000 -0.707107
v -0.707107 1.000000 -0.707107
v -0.382683 -1.000000 -0.923880
v -0.382683 1.000000 -0.923880
vn 0.1951 0.0000 -0.9808
vn 0.5556 0.0000 -0.8315
vn 0.8315 0.0000 -0.5556
vn 0.9808 0.0000 -0.1951
vn 0.9808 0.0000 0.1951
vn 0.8315 0.0000 0.5556
vn 0.5556 0.0000 0.8315
vn 0.1951 0.0000 0.9808
vn -0.1951 0.0000 0.9808
vn -0.5556 0.0000 0.8315
vn -0.8315 0.0000 0.5556
vn -0.9808 0.0000 0.1951
vn -0.9808 0.0000 -0.1951
vn -0.8315 0.0000 -0.5556
vn -0.5556 0.0000 -0.8315
vn -0.1951 0.0000 -0.9808
usemtl None
s off
f 2//1 3//1 1//1
f 4//2 5//2 3//2
f 6//3 7//3 5//3
f 8//4 9//4 7//4
f 10//5 11//5 9//5
f 12//6 13//6 11//6
f 14//7 15//7 13//7
f 16//8 17//8 15//8
f 18//9 19//9 17//9
f 20//10 21//10 19//10
f 22//11 23//11 21//11
f 24//12 25//12 23//12
f 26//13 27//13 25//13
f 28//14 29//14 27//14
f 30//15 31//15 29//15
f 32//16 1//16 31//16
f 2//1 4//1 3//1
f 4//2 6//2 5//2
f 6//3 8//3 7//3
f 8//4 10//4 9//4
f 10//5 12//5 11//5
f 12//6 14//6 13//6
f 14//7 16//7 15//7
f 16//8 18//8 17//8
f 18//9 20//9 19//9
f 20//10 22//10 21//10
f 22//11 24//11 23//11
f 24//12 26//12 25//12
f 26//13 28//13 27//13
f 28//14 30//14 29//14
f 30//15 32//15 31//15
f 32//16 2//16 1//16
